<svg width="409" height="436" viewBox="0 0 409 436" fill="none" xmlns="http://www.w3.org/2000/svg">
<path d="M50.6431 247.83V413.475C50.6431 415.347 51.1114 417.687 53.4531 421.43M50.6431 247.83L1 218.351M50.6431 247.83C50.6431 236.644 53.58 230.593 65.6297 222.858M1 218.351V380.253C1 388.208 1 390.814 6.15164 393.355L53.4531 421.43M1 218.351C1 207.121 4.74665 197.762 15.5183 193.082M53.4531 421.43C55.3264 423.302 59.073 425.174 66.098 421.43L174.282 359.094M206.129 435L230.951 326.442L174.282 359.094M206.129 435L161.638 409.264L174.282 359.094M206.129 435L297.453 287.136L394.398 231.453C407.043 222.562 408.186 216.094 407.98 205.249V42.4112C407.98 34.6307 401.891 29.5333 400.486 29.7774M65.6297 222.858C67.1897 221.857 68.9024 220.827 70.7813 219.754L392.993 33.5207C395.803 32.117 398.613 30.7132 400.486 29.7774M65.6297 222.858L15.5183 193.082M15.5183 193.082L250.152 57.853M265.607 49.8983L289.492 34.9247M305.415 26.97L344.755 3.10584C349.438 0.298163 350.843 0.298113 355.527 3.10584L400.486 29.7774M80.1479 251.574L378.943 77.9736M344.287 135.06L80.1479 287.604M140.094 330.653L159.296 333.928L152.271 311L169.131 286.668L148.524 296.494L140.094 275.906L131.664 306.321L108.248 319.891L126.044 325.974L120.893 354.049L140.094 330.653ZM233.292 277.777L252.025 280.585L245 257.657L263.265 230.985L241.254 240.811L231.887 222.562L224.394 252.977L200.509 267.483L218.306 273.566L212.686 301.642L233.292 277.777ZM326.022 222.562L344.287 225.838L337.73 206.653L355.527 176.238L333.983 187L324.148 167.815L316.187 199.166L292.77 212.736L310.098 219.287L304.947 246.894L326.022 222.562Z" stroke="url(#paint0_linear_71_191)"/>
<defs>
<linearGradient id="paint0_linear_71_191" x1="323.622" y1="-86.6359" x2="-16.9653" y2="283.229" gradientUnits="userSpaceOnUse">
<stop stop-color="#F03B46"/>
<stop offset="1" stop-color="white"/>
</linearGradient>
</defs>
</svg>
