<svg width="128" height="120" viewBox="0 0 128 120" fill="none" xmlns="http://www.w3.org/2000/svg">
<path d="M0 119H13.2872M128 119H118.256M118.256 119H100.54M118.256 119V94.9547M61.564 45.9736H77.9516V21.483L118.256 1V21.483M61.564 45.9736L61.6612 62.0038M61.564 45.9736H41.6332M61.564 45.9736V29.7208M61.564 13.4679H67.7647V5.45283H9.30104V13.4679H13.2872M61.564 13.4679H41.6332M61.564 13.4679V29.7208M13.2872 13.4679H33.218M13.2872 13.4679V29.7208M13.2872 119H27.4602M13.2872 119V94.9547M27.4602 119V102.525H21.7024H37.6471M27.4602 119H37.6471M37.6471 102.525V119M37.6471 102.525H53.1488H47.8339V119M37.6471 119H47.8339M47.8339 119H62.0069M79.7232 119V102.525H90.1315M79.7232 119H90.1315M79.7232 119H62.0069M100.54 119V102.525H90.1315M100.54 119H90.1315M90.1315 119V102.525M62.0069 119L61.8611 94.9547M118.256 94.9547H93.8962V86.4943M118.256 94.9547V86.4943M118.256 21.483H93.8962V29.4981M118.256 21.483V29.4981M118.256 29.4981H93.8962M118.256 29.4981V37.9585M93.8962 29.4981V37.9585M93.8962 37.9585H118.256M93.8962 37.9585V45.9736M118.256 37.9585V45.9736M118.256 45.9736H93.8962M118.256 45.9736V53.9887M93.8962 45.9736V53.9887M93.8962 53.9887H118.256M93.8962 53.9887V62.4491M118.256 53.9887V62.4491M118.256 62.4491H93.8962M118.256 62.4491V70.4642M93.8962 62.4491V70.4642M93.8962 70.4642H118.256M93.8962 70.4642V78.4792M118.256 70.4642V78.4792M118.256 78.4792H93.8962M118.256 78.4792V86.4943M93.8962 78.4792V86.4943M93.8962 86.4943H118.256M61.8611 94.9547H41.6332M61.8611 94.9547L61.7612 78.4792M13.2872 94.9547H33.218M13.2872 94.9547V78.4792M33.218 94.9547H41.6332M33.218 94.9547V78.4792M33.218 13.4679H41.6332M33.218 13.4679V29.7208M41.6332 13.4679V29.7208M41.6332 94.9547V78.4792M41.6332 78.4792H61.7612M41.6332 78.4792V62.0038M61.7612 78.4792L61.6612 62.0038M33.218 78.4792H13.2872M33.218 78.4792V62.0038M13.2872 78.4792V62.0038M13.2872 62.0038H33.218M13.2872 62.0038V45.9736M33.218 62.0038V45.9736M41.6332 62.0038H61.6612M41.6332 62.0038V45.9736M41.6332 45.9736V29.7208M33.218 45.9736H13.2872M33.218 45.9736V29.7208M13.2872 45.9736V29.7208M13.2872 29.7208H33.218M41.6332 29.7208H61.564M69.9792 54.434V62.0038H77.9516V54.434H69.9792ZM69.9792 70.4642H77.9516V78.4792H69.9792V70.4642ZM69.9792 86.4943H77.9516V94.5094H69.9792V86.4943Z" stroke="url(#paint0_linear_52_4)"/>
<defs>
<linearGradient id="paint0_linear_52_4" x1="108.512" y1="14.8038" x2="46.0269" y2="114.247" gradientUnits="userSpaceOnUse">
<stop stop-color="#F03B46"/>
<stop offset="1" stop-color="white"/>
</linearGradient>
</defs>
</svg>
